# xmcd
#
# Track frame offsets: 
#        150
#        17651
#        34762
#        51943
#        66594
#        82069
#        106760
#        127397
#        150193
#        175281
#        198578
#        216515
#        233237
#        254852
#
# Disc length: 3712 seconds
#
# Revision: 0
# Processed by: cddbd v1.5.2PL0 Copyright (c) Steve Scherf et al.
# Submitted via: ExactAudioCopy v0.99pb4
#
DISCID=d30e7e0e
DTITLE=дроботенко сергей - и смех, и грех
DYEAR=2003
DGENRE=
TTITLE0=ну ты странная (возвращение мужа под-шофе)
TTITLE1=кондуктор и пассажиры
TTITLE2=харумамбуру
TTITLE3=посвящение любимой теще
TTITLE4=валентинов день
TTITLE5=два тоста на юбилее
TTITLE6=кавказкий тост
TTITLE7=8 марта
TTITLE8=экзамен по литературе
TTITLE9=случай на радио европа плюс
TTITLE10=никакой торговли
TTITLE11=ритуал
TTITLE12=день рождения
TTITLE13=поликлиника
EXTD=
EXTT0=
EXTT1=
EXTT2=
EXTT3=
EXTT4=
EXTT5=
EXTT6=
EXTT7=
EXTT8=
EXTT9=
EXTT10=
EXTT11=
EXTT12=
EXTT13=
PLAYORDER=
